<svg width="80" height="80" viewBox="0 0 80 80" fill="none" xmlns="http://www.w3.org/2000/svg">
<path d="M35 66.375C33.375 66.375 31.875 65.75 30.75 64.625L14.125 48C11.75 45.625 11.75 41.875 14.125 39.5L36.375 17.25C38.375 15.25 42 13.75 44.75 13.75H59C62.25 13.75 65 16.5 65 19.75V34C65 36.75 63.5 40.375 61.5 42.375L39.25 64.625C38.125 65.75 36.625 66.375 35 66.375ZM44.75 17.5C43 17.5 40.25 18.625 39 19.875L16.75 42.125C15.875 43 15.875 44.375 16.75 45.25L33.375 61.875C34.25 62.75 35.75 62.75 36.5 61.875L58.75 39.625C60 38.375 61.125 35.75 61.125 33.875V19.625C61.125 18.375 60.125 17.375 58.875 17.375H44.75V17.5Z" fill="#FF9502"/>
<path d="M50 36.125C46 36.125 42.625 32.875 42.625 28.75C42.625 24.75 45.875 21.375 50 21.375C54 21.375 57.375 24.625 57.375 28.75C57.375 32.75 54.125 36.125 50 36.125ZM50 24.875C47.875 24.875 46.125 26.625 46.125 28.75C46.125 30.875 47.875 32.625 50 32.625C52.125 32.625 53.875 30.875 53.875 28.75C53.875 26.625 52.125 24.875 50 24.875Z" fill="#FF9502"/>
</svg>
