<svg width="45" height="45" viewBox="0 0 45 45" fill="none" xmlns="http://www.w3.org/2000/svg">
<path d="M24.6075 16.933C24.6126 16.933 24.6126 16.9279 24.6178 16.9279C24.9879 16.6426 25.3888 16.6223 25.5173 16.6223C26.3449 16.6426 27.1724 16.6579 28 16.6783V13H24.6589C24.0523 13 23.4509 13.107 22.8958 13.3362C22.3561 13.5553 21.7495 13.9272 21.2304 14.5437C20.1921 15.7868 20.228 17.1878 20.2486 17.5138V20.7031H17V24.5138H20.2537V34H24.1294V24.5138H27.3266L27.9178 20.7031H24.1294V17.9469C24.1243 17.5546 24.2991 17.1776 24.6075 16.933Z" fill="white"/>
<circle cx="22.5" cy="22.5" r="21.5" stroke="white" stroke-width="2"/>
</svg>
