<svg width="80" height="80" viewBox="0 0 80 80" fill="none" xmlns="http://www.w3.org/2000/svg">
<path d="M53.4997 17.5C57.1816 17.5 60.1663 14.5152 60.1663 10.8333C60.1663 7.15139 57.1816 4.16663 53.4997 4.16663C49.8178 4.16663 46.833 7.15139 46.833 10.8333C46.833 14.5152 49.8178 17.5 53.4997 17.5Z" fill="#FF9502"/>
<path d="M69.6667 19.9999C68 19.1666 66 19.7499 65.1667 21.4166L62.25 26.9166L49.4167 18.8333C48.9167 18.4999 48.3333 18.3333 47.6667 18.3333H33.5C32.25 18.3333 31.1667 18.9999 30.5833 20.0833L25.1667 30.0833C24.25 31.6666 24.9167 33.7499 26.5 34.5833C27 34.8333 27.5833 34.9999 28.0833 34.9999C29.25 34.9999 30.4167 34.3333 31 33.2499L35.5 24.9999H40.4167L25.6667 52.4999H11.8333C10 52.4999 8.5 53.9999 8.5 55.8333C8.5 57.6666 10 59.1666 11.8333 59.1666H27.6667C28.9167 59.1666 30 58.4999 30.5833 57.4166L36.4167 46.6666L46 55.5832L45.25 72.3333C45.0833 74.1666 46.5 75.7499 48.3333 75.8333C48.4167 75.8333 48.4167 75.8333 48.5 75.8333C50.25 75.8333 51.75 74.4166 51.8333 72.6666L52.6667 54.3332C52.75 53.3332 52.3333 52.4166 51.5833 51.7499L43.5 44.2499L52 28.4166L61.6667 34.4999C62.4167 34.9999 63.4167 35.1666 64.3333 34.9166C65.25 34.6666 66 34.0833 66.4167 33.2499L71 24.4999C71.9167 22.9166 71.3333 20.9166 69.6667 19.9999Z" fill="#FF9502"/>
</svg>
