<svg width="255" height="45" viewBox="0 0 255 45" fill="none" xmlns="http://www.w3.org/2000/svg">
<path d="M61.692 32H59.124V14.768H61.692V32ZM67.4728 21.5C67.7368 21.22 68.0128 20.964 68.3008 20.732C68.5888 20.5 68.8928 20.304 69.2128 20.144C69.5408 19.976 69.8888 19.848 70.2568 19.76C70.6328 19.664 71.0328 19.616 71.4568 19.616C72.1288 19.616 72.7168 19.728 73.2208 19.952C73.7328 20.176 74.1608 20.492 74.5048 20.9C74.8488 21.3 75.1088 21.784 75.2848 22.352C75.4608 22.92 75.5488 23.548 75.5488 24.236V32H73.1968V24.236C73.1968 23.364 72.9968 22.688 72.5968 22.208C72.1968 21.72 71.5848 21.476 70.7608 21.476C70.1608 21.476 69.5968 21.62 69.0688 21.908C68.5488 22.188 68.0648 22.572 67.6168 23.06V32H65.2768V19.808H66.6808C67.0088 19.808 67.2128 19.964 67.2928 20.276L67.4728 21.5ZM79.323 32V21.728L78.051 21.572C77.867 21.532 77.715 21.468 77.595 21.38C77.483 21.284 77.427 21.148 77.427 20.972V20H79.323V18.896C79.323 18.2 79.423 17.58 79.623 17.036C79.823 16.492 80.107 16.032 80.475 15.656C80.851 15.272 81.299 14.984 81.819 14.792C82.347 14.592 82.939 14.492 83.595 14.492C84.147 14.492 84.655 14.572 85.119 14.732L85.071 15.908C85.063 16.012 85.031 16.092 84.975 16.148C84.919 16.196 84.843 16.232 84.747 16.256C84.659 16.28 84.547 16.296 84.411 16.304C84.283 16.304 84.143 16.304 83.991 16.304C83.631 16.304 83.303 16.348 83.007 16.436C82.711 16.524 82.459 16.672 82.251 16.88C82.043 17.088 81.883 17.364 81.771 17.708C81.659 18.044 81.603 18.464 81.603 18.968V20H85.023V21.704H81.675V32H79.323ZM91.8009 19.616C92.6969 19.616 93.5049 19.764 94.2249 20.06C94.9529 20.348 95.5689 20.768 96.0729 21.32C96.5849 21.864 96.9769 22.524 97.2489 23.3C97.5209 24.068 97.6569 24.932 97.6569 25.892C97.6569 26.852 97.5209 27.72 97.2489 28.496C96.9769 29.272 96.5849 29.932 96.0729 30.476C95.5689 31.02 94.9529 31.44 94.2249 31.736C93.5049 32.024 92.6969 32.168 91.8009 32.168C90.8969 32.168 90.0809 32.024 89.3529 31.736C88.6329 31.44 88.0169 31.02 87.5049 30.476C86.9929 29.932 86.5969 29.272 86.3169 28.496C86.0449 27.72 85.9089 26.852 85.9089 25.892C85.9089 24.932 86.0449 24.068 86.3169 23.3C86.5969 22.524 86.9929 21.864 87.5049 21.32C88.0169 20.768 88.6329 20.348 89.3529 20.06C90.0809 19.764 90.8969 19.616 91.8009 19.616ZM91.8009 30.344C92.9529 30.344 93.8129 29.956 94.3809 29.18C94.9489 28.404 95.2329 27.312 95.2329 25.904C95.2329 24.496 94.9489 23.404 94.3809 22.628C93.8129 21.844 92.9529 21.452 91.8009 21.452C90.6329 21.452 89.7609 21.844 89.1849 22.628C88.6169 23.404 88.3329 24.496 88.3329 25.904C88.3329 27.312 88.6169 28.404 89.1849 29.18C89.7609 29.956 90.6329 30.344 91.8009 30.344ZM111.201 22.196C110.897 22.132 110.577 22.1 110.241 22.1C109.665 22.1 109.133 22.224 108.645 22.472C108.165 22.712 107.749 23.032 107.397 23.432C107.045 23.824 106.769 24.28 106.569 24.8C106.377 25.312 106.281 25.836 106.281 26.372C106.281 26.932 106.405 27.38 106.653 27.716C106.909 28.044 107.285 28.208 107.781 28.208C108.021 28.208 108.261 28.172 108.501 28.1C108.749 28.02 108.981 27.884 109.197 27.692C109.421 27.5 109.629 27.244 109.821 26.924C110.013 26.604 110.173 26.196 110.301 25.7L111.201 22.196ZM112.125 25.472C111.973 26.056 111.897 26.532 111.897 26.9C111.905 27.26 111.965 27.544 112.077 27.752C112.189 27.96 112.345 28.104 112.545 28.184C112.745 28.256 112.965 28.292 113.205 28.292C113.581 28.292 113.937 28.184 114.273 27.968C114.617 27.744 114.917 27.432 115.173 27.032C115.429 26.624 115.633 26.14 115.785 25.58C115.937 25.02 116.013 24.404 116.013 23.732C116.013 22.644 115.837 21.688 115.485 20.864C115.141 20.04 114.661 19.356 114.045 18.812C113.437 18.268 112.717 17.86 111.885 17.588C111.053 17.308 110.149 17.168 109.173 17.168C108.109 17.168 107.113 17.372 106.185 17.78C105.257 18.18 104.449 18.736 103.761 19.448C103.081 20.16 102.541 21.004 102.141 21.98C101.749 22.948 101.553 24 101.553 25.136C101.553 26.48 101.765 27.664 102.189 28.688C102.613 29.712 103.189 30.568 103.917 31.256C104.653 31.936 105.517 32.448 106.509 32.792C107.501 33.144 108.565 33.32 109.701 33.32C110.917 33.32 111.989 33.192 112.917 32.936C113.845 32.68 114.633 32.356 115.281 31.964C115.457 31.86 115.609 31.828 115.737 31.868C115.865 31.908 115.961 32.008 116.025 32.168L116.349 33.032C115.501 33.592 114.525 34.04 113.421 34.376C112.317 34.712 111.077 34.88 109.701 34.88C108.293 34.88 106.989 34.656 105.789 34.208C104.589 33.768 103.545 33.128 102.657 32.288C101.777 31.456 101.085 30.44 100.581 29.24C100.085 28.032 99.837 26.664 99.837 25.136C99.837 24.272 99.945 23.436 100.161 22.628C100.385 21.82 100.697 21.064 101.097 20.36C101.497 19.656 101.981 19.012 102.549 18.428C103.117 17.844 103.745 17.344 104.433 16.928C105.121 16.512 105.865 16.192 106.665 15.968C107.465 15.736 108.301 15.62 109.173 15.62C109.917 15.62 110.645 15.704 111.357 15.872C112.069 16.032 112.737 16.272 113.361 16.592C113.993 16.904 114.573 17.292 115.101 17.756C115.637 18.212 116.093 18.744 116.469 19.352C116.853 19.952 117.153 20.62 117.369 21.356C117.585 22.084 117.693 22.876 117.693 23.732C117.693 24.596 117.569 25.396 117.321 26.132C117.073 26.868 116.733 27.508 116.301 28.052C115.869 28.588 115.357 29.012 114.765 29.324C114.181 29.628 113.549 29.78 112.869 29.78C112.269 29.78 111.765 29.636 111.357 29.348C110.957 29.06 110.697 28.612 110.577 28.004C110.113 28.628 109.609 29.076 109.065 29.348C108.529 29.612 107.949 29.744 107.325 29.744C106.845 29.744 106.425 29.66 106.065 29.492C105.705 29.324 105.405 29.092 105.165 28.796C104.925 28.5 104.745 28.152 104.625 27.752C104.513 27.344 104.457 26.904 104.457 26.432C104.457 25.752 104.585 25.068 104.841 24.38C105.105 23.684 105.493 23.056 106.005 22.496C106.525 21.936 107.169 21.48 107.937 21.128C108.705 20.776 109.597 20.6 110.613 20.6C111.165 20.6 111.649 20.644 112.065 20.732C112.481 20.82 112.877 20.944 113.253 21.104L112.125 25.472ZM139.002 14.768V32H136.77V19.736C136.77 19.552 136.774 19.356 136.782 19.148C136.798 18.94 136.814 18.728 136.83 18.512L131.094 29.036C130.894 29.428 130.586 29.624 130.17 29.624H129.81C129.394 29.624 129.09 29.428 128.898 29.036L123.054 18.476C123.102 18.924 123.126 19.344 123.126 19.736V32H120.882V14.768H122.778C123.002 14.768 123.174 14.792 123.294 14.84C123.422 14.88 123.542 15 123.654 15.2L129.414 25.52C129.526 25.728 129.63 25.948 129.726 26.18C129.822 26.412 129.914 26.644 130.002 26.876C130.17 26.404 130.366 25.948 130.59 25.508L136.242 15.2C136.346 15 136.458 14.88 136.578 14.84C136.706 14.792 136.882 14.768 137.106 14.768H139.002ZM148.985 26.588C148.033 26.62 147.225 26.696 146.561 26.816C145.897 26.928 145.357 27.08 144.941 27.272C144.525 27.464 144.225 27.692 144.041 27.956C143.857 28.212 143.765 28.5 143.765 28.82C143.765 29.124 143.813 29.388 143.909 29.612C144.013 29.828 144.149 30.008 144.317 30.152C144.493 30.288 144.697 30.388 144.929 30.452C145.161 30.516 145.413 30.548 145.685 30.548C146.045 30.548 146.373 30.512 146.669 30.44C146.973 30.368 147.257 30.268 147.521 30.14C147.785 30.004 148.037 29.84 148.277 29.648C148.517 29.456 148.753 29.236 148.985 28.988V26.588ZM142.121 21.512C142.801 20.864 143.537 20.38 144.329 20.06C145.129 19.74 146.005 19.58 146.957 19.58C147.653 19.58 148.269 19.696 148.805 19.928C149.341 20.152 149.793 20.468 150.161 20.876C150.529 21.284 150.805 21.772 150.989 22.34C151.181 22.908 151.277 23.536 151.277 24.224V32H150.233C150.001 32 149.825 31.964 149.705 31.892C149.585 31.812 149.489 31.668 149.417 31.46L149.165 30.392C148.853 30.68 148.545 30.936 148.241 31.16C147.937 31.376 147.617 31.564 147.281 31.724C146.953 31.876 146.601 31.992 146.225 32.072C145.849 32.152 145.433 32.192 144.977 32.192C144.497 32.192 144.045 32.128 143.621 32C143.205 31.864 142.841 31.66 142.529 31.388C142.217 31.116 141.969 30.776 141.785 30.368C141.609 29.96 141.521 29.484 141.521 28.94C141.521 28.46 141.649 28 141.905 27.56C142.169 27.112 142.593 26.712 143.177 26.36C143.769 26.008 144.537 25.72 145.481 25.496C146.433 25.272 147.601 25.144 148.985 25.112V24.224C148.985 23.304 148.789 22.616 148.397 22.16C148.005 21.704 147.429 21.476 146.669 21.476C146.157 21.476 145.725 21.54 145.373 21.668C145.029 21.796 144.729 21.94 144.473 22.1C144.225 22.252 144.005 22.392 143.813 22.52C143.629 22.648 143.437 22.712 143.237 22.712C143.077 22.712 142.937 22.668 142.817 22.58C142.705 22.492 142.613 22.388 142.541 22.268L142.121 21.512ZM159.606 19.616C160.502 19.616 161.31 19.764 162.03 20.06C162.758 20.348 163.374 20.768 163.878 21.32C164.39 21.864 164.782 22.524 165.054 23.3C165.326 24.068 165.462 24.932 165.462 25.892C165.462 26.852 165.326 27.72 165.054 28.496C164.782 29.272 164.39 29.932 163.878 30.476C163.374 31.02 162.758 31.44 162.03 31.736C161.31 32.024 160.502 32.168 159.606 32.168C158.702 32.168 157.886 32.024 157.158 31.736C156.438 31.44 155.822 31.02 155.31 30.476C154.798 29.932 154.402 29.272 154.122 28.496C153.85 27.72 153.714 26.852 153.714 25.892C153.714 24.932 153.85 24.068 154.122 23.3C154.402 22.524 154.798 21.864 155.31 21.32C155.822 20.768 156.438 20.348 157.158 20.06C157.886 19.764 158.702 19.616 159.606 19.616ZM159.606 30.344C160.758 30.344 161.618 29.956 162.186 29.18C162.754 28.404 163.038 27.312 163.038 25.904C163.038 24.496 162.754 23.404 162.186 22.628C161.618 21.844 160.758 21.452 159.606 21.452C158.438 21.452 157.566 21.844 156.99 22.628C156.422 23.404 156.138 24.496 156.138 25.904C156.138 27.312 156.422 28.404 156.99 29.18C157.566 29.956 158.438 30.344 159.606 30.344ZM170.27 21.5C170.534 21.22 170.81 20.964 171.098 20.732C171.386 20.5 171.69 20.304 172.01 20.144C172.338 19.976 172.686 19.848 173.054 19.76C173.43 19.664 173.83 19.616 174.254 19.616C174.926 19.616 175.514 19.728 176.018 19.952C176.53 20.176 176.958 20.492 177.302 20.9C177.646 21.3 177.906 21.784 178.082 22.352C178.258 22.92 178.346 23.548 178.346 24.236V32H175.994V24.236C175.994 23.364 175.794 22.688 175.394 22.208C174.994 21.72 174.382 21.476 173.558 21.476C172.958 21.476 172.394 21.62 171.866 21.908C171.346 22.188 170.862 22.572 170.414 23.06V32H168.074V19.808H169.478C169.806 19.808 170.01 19.964 170.09 20.276L170.27 21.5ZM189.579 24.548C189.579 24.084 189.511 23.656 189.375 23.264C189.247 22.872 189.055 22.532 188.799 22.244C188.543 21.956 188.231 21.732 187.863 21.572C187.495 21.412 187.071 21.332 186.591 21.332C185.607 21.332 184.831 21.616 184.263 22.184C183.703 22.752 183.347 23.54 183.195 24.548H189.579ZM191.511 30.26C191.223 30.596 190.891 30.888 190.515 31.136C190.139 31.376 189.739 31.572 189.315 31.724C188.891 31.876 188.451 31.988 187.995 32.06C187.547 32.132 187.103 32.168 186.663 32.168C185.823 32.168 185.043 32.028 184.323 31.748C183.611 31.46 182.991 31.044 182.463 30.5C181.943 29.948 181.535 29.268 181.239 28.46C180.951 27.644 180.807 26.708 180.807 25.652C180.807 24.804 180.939 24.016 181.203 23.288C181.467 22.552 181.843 21.912 182.331 21.368C182.827 20.824 183.431 20.396 184.143 20.084C184.855 19.772 185.655 19.616 186.543 19.616C187.287 19.616 187.971 19.74 188.595 19.988C189.227 20.228 189.771 20.58 190.227 21.044C190.683 21.508 191.039 22.08 191.295 22.76C191.559 23.44 191.691 24.216 191.691 25.088C191.691 25.448 191.651 25.692 191.571 25.82C191.491 25.94 191.343 26 191.127 26H183.135C183.159 26.728 183.263 27.364 183.447 27.908C183.631 28.444 183.883 28.892 184.203 29.252C184.531 29.612 184.919 29.88 185.367 30.056C185.815 30.232 186.315 30.32 186.867 30.32C187.387 30.32 187.835 30.26 188.211 30.14C188.595 30.02 188.923 29.892 189.195 29.756C189.475 29.612 189.707 29.48 189.891 29.36C190.083 29.24 190.251 29.18 190.395 29.18C190.587 29.18 190.735 29.252 190.839 29.396L191.511 30.26ZM204.534 19.808L197.766 35.54C197.694 35.716 197.598 35.852 197.478 35.948C197.358 36.044 197.182 36.092 196.95 36.092H195.21L197.442 31.232L192.438 19.808H194.478C194.678 19.808 194.834 19.856 194.946 19.952C195.058 20.048 195.138 20.156 195.186 20.276L198.282 27.596C198.346 27.78 198.406 27.968 198.462 28.16C198.526 28.344 198.578 28.528 198.618 28.712C198.674 28.52 198.734 28.332 198.798 28.148C198.862 27.956 198.93 27.768 199.002 27.584L201.99 20.276C202.046 20.14 202.134 20.028 202.254 19.94C202.374 19.852 202.51 19.808 202.662 19.808H204.534ZM205.096 30.596C205.096 30.38 205.136 30.176 205.216 29.984C205.296 29.792 205.404 29.624 205.54 29.48C205.684 29.336 205.852 29.224 206.044 29.144C206.236 29.056 206.444 29.012 206.668 29.012C206.884 29.012 207.088 29.056 207.28 29.144C207.472 29.224 207.64 29.336 207.784 29.48C207.928 29.624 208.04 29.792 208.12 29.984C208.208 30.176 208.252 30.38 208.252 30.596C208.252 30.82 208.208 31.028 208.12 31.22C208.04 31.412 207.928 31.58 207.784 31.724C207.64 31.868 207.472 31.98 207.28 32.06C207.088 32.14 206.884 32.18 206.668 32.18C206.444 32.18 206.236 32.14 206.044 32.06C205.852 31.98 205.684 31.868 205.54 31.724C205.404 31.58 205.296 31.412 205.216 31.22C205.136 31.028 205.096 30.82 205.096 30.596ZM219.696 22.088C219.624 22.176 219.552 22.248 219.48 22.304C219.416 22.352 219.32 22.376 219.192 22.376C219.064 22.376 218.928 22.328 218.784 22.232C218.648 22.128 218.472 22.02 218.256 21.908C218.048 21.788 217.792 21.68 217.488 21.584C217.192 21.48 216.824 21.428 216.384 21.428C215.808 21.428 215.3 21.532 214.86 21.74C214.42 21.948 214.052 22.244 213.756 22.628C213.468 23.012 213.248 23.48 213.096 24.032C212.944 24.584 212.868 25.204 212.868 25.892C212.868 26.604 212.948 27.24 213.108 27.8C213.268 28.352 213.496 28.82 213.792 29.204C214.088 29.58 214.448 29.868 214.872 30.068C215.296 30.26 215.768 30.356 216.288 30.356C216.792 30.356 217.208 30.296 217.536 30.176C217.864 30.048 218.136 29.912 218.352 29.768C218.568 29.624 218.748 29.492 218.892 29.372C219.036 29.244 219.184 29.18 219.336 29.18C219.528 29.18 219.676 29.252 219.78 29.396L220.452 30.26C220.172 30.604 219.856 30.896 219.504 31.136C219.16 31.376 218.792 31.572 218.4 31.724C218.008 31.876 217.596 31.988 217.164 32.06C216.74 32.132 216.308 32.168 215.868 32.168C215.108 32.168 214.396 32.028 213.732 31.748C213.076 31.468 212.504 31.06 212.016 30.524C211.536 29.988 211.156 29.332 210.876 28.556C210.596 27.772 210.456 26.884 210.456 25.892C210.456 24.988 210.58 24.152 210.828 23.384C211.084 22.616 211.456 21.956 211.944 21.404C212.44 20.844 213.048 20.408 213.768 20.096C214.488 19.776 215.312 19.616 216.24 19.616C217.112 19.616 217.88 19.756 218.544 20.036C219.208 20.316 219.8 20.712 220.32 21.224L219.696 22.088ZM227.621 19.616C228.517 19.616 229.325 19.764 230.045 20.06C230.773 20.348 231.389 20.768 231.893 21.32C232.405 21.864 232.797 22.524 233.069 23.3C233.341 24.068 233.477 24.932 233.477 25.892C233.477 26.852 233.341 27.72 233.069 28.496C232.797 29.272 232.405 29.932 231.893 30.476C231.389 31.02 230.773 31.44 230.045 31.736C229.325 32.024 228.517 32.168 227.621 32.168C226.717 32.168 225.901 32.024 225.173 31.736C224.453 31.44 223.837 31.02 223.325 30.476C222.813 29.932 222.417 29.272 222.137 28.496C221.865 27.72 221.729 26.852 221.729 25.892C221.729 24.932 221.865 24.068 222.137 23.3C222.417 22.524 222.813 21.864 223.325 21.32C223.837 20.768 224.453 20.348 225.173 20.06C225.901 19.764 226.717 19.616 227.621 19.616ZM227.621 30.344C228.773 30.344 229.633 29.956 230.201 29.18C230.769 28.404 231.053 27.312 231.053 25.904C231.053 24.496 230.769 23.404 230.201 22.628C229.633 21.844 228.773 21.452 227.621 21.452C226.453 21.452 225.581 21.844 225.005 22.628C224.437 23.404 224.153 24.496 224.153 25.904C224.153 27.312 224.437 28.404 225.005 29.18C225.581 29.956 226.453 30.344 227.621 30.344ZM236.089 32V19.808H237.493C237.821 19.808 238.025 19.964 238.105 20.276L238.273 21.44C238.721 20.904 239.217 20.468 239.761 20.132C240.313 19.788 240.957 19.616 241.693 19.616C242.501 19.616 243.157 19.84 243.661 20.288C244.165 20.728 244.533 21.328 244.765 22.088C244.941 21.656 245.169 21.284 245.449 20.972C245.729 20.66 246.041 20.404 246.385 20.204C246.729 20.004 247.093 19.856 247.477 19.76C247.869 19.664 248.265 19.616 248.665 19.616C249.313 19.616 249.889 19.72 250.393 19.928C250.905 20.128 251.337 20.424 251.689 20.816C252.041 21.208 252.309 21.692 252.493 22.268C252.677 22.844 252.769 23.5 252.769 24.236V32H250.417V24.236C250.417 23.324 250.217 22.636 249.817 22.172C249.425 21.708 248.849 21.476 248.089 21.476C247.753 21.476 247.433 21.536 247.129 21.656C246.825 21.768 246.557 21.94 246.325 22.172C246.101 22.404 245.921 22.692 245.785 23.036C245.657 23.38 245.593 23.78 245.593 24.236V32H243.241V24.236C243.241 23.292 243.053 22.596 242.677 22.148C242.301 21.7 241.749 21.476 241.021 21.476C240.517 21.476 240.049 21.608 239.617 21.872C239.185 22.136 238.789 22.496 238.429 22.952V32H236.089Z" fill="white"/>
<path d="M57 38.12H254.281V39.224H57V38.12Z" fill="white"/>
<circle cx="22.5" cy="22.5" r="21.5" stroke="white" stroke-width="2"/>
<path d="M32.125 12C33.2853 12 34.3981 12.4609 35.2186 13.2814C36.0391 14.1019 36.5 15.2147 36.5 16.375V30.375C36.5 31.5353 36.0391 32.6481 35.2186 33.4686C34.3981 34.2891 33.2853 34.75 32.125 34.75H12.875C11.7147 34.75 10.6019 34.2891 9.78141 33.4686C8.96094 32.6481 8.5 31.5353 8.5 30.375V16.375C8.5 15.2147 8.96094 14.1019 9.78141 13.2814C10.6019 12.4609 11.7147 12 12.875 12H32.125ZM34.75 18.9317L22.9445 25.8792C22.8329 25.9448 22.7081 25.9847 22.5792 25.9962C22.4503 26.0077 22.3204 25.9905 22.199 25.9457L22.0555 25.8792L10.25 18.9352V30.375C10.25 31.0712 10.5266 31.7389 11.0188 32.2312C11.5111 32.7234 12.1788 33 12.875 33H32.125C32.8212 33 33.4889 32.7234 33.9812 32.2312C34.4734 31.7389 34.75 31.0712 34.75 30.375V18.9317ZM32.125 13.75H12.875C12.1788 13.75 11.5111 14.0266 11.0188 14.5188C10.5266 15.0111 10.25 15.6788 10.25 16.375V16.9035L22.5 24.11L34.75 16.9V16.375C34.75 15.6788 34.4734 15.0111 33.9812 14.5188C33.4889 14.0266 32.8212 13.75 32.125 13.75Z" fill="white"/>
</svg>
