<svg width="45" height="45" viewBox="0 0 45 45" fill="none" xmlns="http://www.w3.org/2000/svg">
<circle cx="22.5" cy="22.5" r="21.5" stroke="white" stroke-width="2"/>
<path d="M17.6667 32.3333H13.6667V19H17.6667V32.3333ZM32.3334 32.3333H28.3334V25.2107C28.3334 23.3547 27.672 22.4307 26.3614 22.4307C25.3227 22.4307 24.664 22.948 24.3334 23.984C24.3334 25.6667 24.3334 32.3333 24.3334 32.3333H20.3334C20.3334 32.3333 20.3867 20.3333 20.3334 19H23.4907L23.7347 21.6667H23.8174C24.6374 20.3333 25.948 19.4293 27.7454 19.4293C29.112 19.4293 30.2174 19.8093 31.0614 20.764C31.9107 21.72 32.3334 23.0027 32.3334 24.804V32.3333Z" fill="white"/>
<path d="M15.6666 17.6667C16.808 17.6667 17.7333 16.7712 17.7333 15.6667C17.7333 14.5621 16.808 13.6667 15.6666 13.6667C14.5253 13.6667 13.6 14.5621 13.6 15.6667C13.6 16.7712 14.5253 17.6667 15.6666 17.6667Z" fill="white"/>
</svg>
