<svg width="45" height="45" viewBox="0 0 45 45" fill="none" xmlns="http://www.w3.org/2000/svg">
<path d="M22.5 11.25C19.4447 11.25 19.0616 11.263 17.8616 11.3177C16.6642 11.3723 15.8464 11.5625 15.1308 11.8406C14.391 12.1281 13.7636 12.5128 13.1382 13.1382C12.5128 13.7636 12.1281 14.391 11.8406 15.1308C11.5625 15.8464 11.3723 16.6642 11.3177 17.8616C11.2629 19.0616 11.25 19.4447 11.25 22.5C11.25 25.5553 11.2629 25.9384 11.3177 27.1384C11.3723 28.3358 11.5625 29.1536 11.8406 29.8692C12.1281 30.609 12.5128 31.2364 13.1382 31.8618C13.7636 32.4872 14.391 32.8719 15.1308 33.1594C15.8464 33.4375 16.6642 33.6277 17.8616 33.6823C19.0616 33.737 19.4447 33.75 22.5 33.75C25.5553 33.75 25.9384 33.737 27.1384 33.6823C28.3358 33.6277 29.1536 33.4375 29.8692 33.1594C30.609 32.8719 31.2364 32.4872 31.8618 31.8618C32.4872 31.2364 32.8719 30.609 33.1594 29.8692C33.4375 29.1536 33.6277 28.3358 33.6823 27.1384C33.737 25.9384 33.75 25.5553 33.75 22.5C33.75 19.4447 33.737 19.0616 33.6823 17.8616C33.6277 16.6642 33.4375 15.8464 33.1594 15.1308C32.8719 14.391 32.4872 13.7636 31.8618 13.1382C31.2364 12.5128 30.609 12.1281 29.8692 11.8406C29.1536 11.5625 28.3358 11.3723 27.1384 11.3177C25.9384 11.263 25.5553 11.25 22.5 11.25V11.25ZM22.5 13.2771C25.5039 13.2771 25.8597 13.2885 27.046 13.3426C28.1428 13.3927 28.7385 13.5759 29.1349 13.73C29.66 13.9341 30.0348 14.1779 30.4285 14.5715C30.8222 14.9652 31.0659 15.34 31.27 15.8651C31.4241 16.2615 31.6073 16.8572 31.6574 17.954C31.7115 19.1403 31.723 19.4962 31.723 22.5C31.723 25.5039 31.7115 25.8597 31.6574 27.046C31.6073 28.1428 31.4241 28.7385 31.27 29.1349C31.0659 29.66 30.8222 30.0348 30.4285 30.4285C30.0348 30.8222 29.66 31.0659 29.1349 31.27C28.7385 31.4241 28.1428 31.6073 27.046 31.6574C25.8599 31.7115 25.5041 31.723 22.5 31.723C19.4959 31.723 19.1402 31.7115 17.954 31.6574C16.8572 31.6073 16.2615 31.4241 15.8651 31.27C15.34 31.0659 14.9652 30.8222 14.5715 30.4285C14.1778 30.0348 13.934 29.66 13.73 29.1349C13.5759 28.7385 13.3926 28.1428 13.3426 27.046C13.2885 25.8597 13.277 25.5039 13.277 22.5C13.277 19.4962 13.2885 19.1403 13.3426 17.954C13.3926 16.8572 13.5759 16.2615 13.73 15.8651C13.934 15.34 14.1778 14.9652 14.5715 14.5715C14.9652 14.1779 15.34 13.9341 15.8651 13.73C16.2615 13.5759 16.8572 13.3927 17.954 13.3426C19.1403 13.2885 19.4962 13.2771 22.5 13.2771Z" fill="white"/>
<path d="M22.4978 26.2482C20.4267 26.2482 18.7477 24.5693 18.7477 22.4983C18.7477 20.4272 20.4267 18.7482 22.4978 18.7482C24.5688 18.7482 26.2477 20.4272 26.2477 22.4983C26.2477 24.5693 24.5688 26.2482 22.4978 26.2482ZM22.4978 16.7212C19.3072 16.7212 16.7207 19.3076 16.7207 22.4983C16.7207 25.6888 19.3072 28.2753 22.4978 28.2753C25.6883 28.2753 28.2748 25.6888 28.2748 22.4983C28.2748 19.3076 25.6883 16.7212 22.4978 16.7212V16.7212Z" fill="white"/>
<path d="M29.8582 16.4943C29.8582 17.2399 29.2538 17.8443 28.5082 17.8443C27.7626 17.8443 27.1582 17.2399 27.1582 16.4943C27.1582 15.7487 27.7626 15.1443 28.5082 15.1443C29.2538 15.1443 29.8582 15.7487 29.8582 16.4943Z" fill="white"/>
<circle cx="22.5" cy="22.5" r="21.5" stroke="white" stroke-width="2"/>
</svg>
