<svg width="80" height="80" viewBox="0 0 80 80" fill="none" xmlns="http://www.w3.org/2000/svg">
<path d="M33.917 52.9168C35.1948 54.1945 37.042 54.7918 39.4587 54.7084C41.8753 54.6251 43.6392 53.7223 44.7503 52.0001L62.7503 23.7501L34.8337 42.0001C33.167 43.1112 32.2781 44.889 32.167 47.3334C32.0559 49.7779 32.6392 51.639 33.917 52.9168V52.9168ZM39.8337 13.4167C43.0003 13.4167 46.3059 13.9306 49.7503 14.9584C53.1948 15.9862 56.5003 17.7501 59.667 20.2501L55.3337 23.3334C52.8337 21.6667 50.1531 20.4306 47.292 19.6251C44.4309 18.8195 41.9448 18.4167 39.8337 18.4167C32.0559 18.4167 25.417 21.1945 19.917 26.7501C14.417 32.3056 11.667 39.0556 11.667 47.0001C11.667 49.5001 12.0142 52.0279 12.7087 54.5834C13.4031 57.139 14.3892 59.5001 15.667 61.6668H63.917C65.1392 59.6668 66.1114 57.3334 66.8337 54.6668C67.5559 52.0001 67.917 49.389 67.917 46.8334C67.917 44.5001 67.5698 41.9862 66.8753 39.2918C66.1809 36.5973 64.9448 34.1112 63.167 31.8334L66.417 27.5001C68.5281 30.6112 70.1114 33.7362 71.167 36.8751C72.2226 40.014 72.8059 43.1667 72.917 46.3334C73.0281 49.6667 72.6948 52.8056 71.917 55.7501C71.1392 58.6945 70.0003 61.4167 68.5003 63.9167C67.8337 65.1945 67.1253 65.9723 66.3753 66.2501C65.6253 66.5279 64.6948 66.6668 63.5837 66.6668H16.0003C15.0559 66.6668 14.1253 66.4306 13.2087 65.9584C12.292 65.4862 11.6114 64.8056 11.167 63.9167C9.72255 61.2501 8.61144 58.5417 7.83366 55.7917C7.05588 53.0417 6.66699 50.1112 6.66699 47.0001C6.66699 42.389 7.54199 38.0417 9.29199 33.9584C11.042 29.8751 13.417 26.3195 16.417 23.2917C19.417 20.264 22.9309 17.8612 26.9587 16.0834C30.9864 14.3056 35.2781 13.4167 39.8337 13.4167V13.4167Z" fill="#FF9502"/>
</svg>
