<svg width="45" height="45" viewBox="0 0 45 45" fill="none" xmlns="http://www.w3.org/2000/svg">
<g clip-path="url(#clip0_1_515)">
<path d="M37.7711 15.1817C36.8516 15.5903 35.8641 15.8661 34.8258 15.9888C35.8844 15.3544 36.6977 14.3497 37.0813 13.1528C36.0898 13.7396 34.993 14.1677 33.825 14.3966C32.8891 13.4005 31.5563 12.7778 30.0805 12.7778C27.2484 12.7778 24.9539 15.0731 24.9539 17.9052C24.9539 18.3067 24.9984 18.6989 25.0859 19.0739C20.8242 18.8599 17.0461 16.8185 14.5164 13.7161C14.0758 14.4739 13.8227 15.3544 13.8227 16.2942C13.8227 18.0739 14.7281 19.6427 16.1031 20.563C15.2633 20.5356 14.4727 20.306 13.7812 19.9216C13.7805 19.9427 13.7805 19.9653 13.7805 19.9856C13.7805 22.4708 15.5477 24.5435 17.8938 25.0146C17.4641 25.131 17.0109 25.1942 16.543 25.1942C16.2117 25.1942 15.8914 25.1622 15.5789 25.1028C16.2305 27.1388 18.125 28.6216 20.368 28.6638C18.6141 30.0388 16.4031 30.8599 14.0008 30.8599C13.5867 30.8599 13.1781 30.8356 12.7773 30.788C15.0461 32.2411 17.7414 33.0903 20.6375 33.0903C30.0688 33.0903 35.2273 25.2771 35.2273 18.5005C35.2273 18.2786 35.2211 18.0567 35.2117 17.8364C36.2141 17.1138 37.0828 16.2114 37.7711 15.1817Z" fill="white"/>
</g>
<circle cx="22.5" cy="22.5" r="21.5" stroke="white" stroke-width="2"/>
<defs>
<clipPath id="clip0_1_515">
<rect width="25" height="25" fill="white" transform="translate(10 10)"/>
</clipPath>
</defs>
</svg>
